<mxfile host="app.diagrams.net" modified="2023-06-01T14:21:55.719Z" agent="Mozilla/5.0 (Windows NT 10.0; Win64; x64; rv:109.0) Gecko/20100101 Firefox/113.0" etag="gxolvD83H108BVBjRX7u" version="21.3.6" type="device">
  <diagram name="PÃ¡gina-1" id="A2tInzfGKNGtBLCJ4CH3">
    <mxGraphModel dx="388" dy="209" grid="1" gridSize="10" guides="1" tooltips="1" connect="1" arrows="1" fold="1" page="1" pageScale="1" pageWidth="827" pageHeight="1169" math="0" shadow="0">
      <root>
        <mxCell id="0" />
        <mxCell id="1" parent="0" />
        <mxCell id="CuuMhLuTAZU-JGKCB6XP-1" value="" style="ellipse;whiteSpace=wrap;html=1;aspect=fixed;" vertex="1" parent="1">
          <mxGeometry x="250" y="450" width="20" height="20" as="geometry" />
        </mxCell>
        <mxCell id="CuuMhLuTAZU-JGKCB6XP-2" value="" style="ellipse;whiteSpace=wrap;html=1;aspect=fixed;" vertex="1" parent="1">
          <mxGeometry x="280" y="450" width="20" height="20" as="geometry" />
        </mxCell>
        <mxCell id="CuuMhLuTAZU-JGKCB6XP-4" value="" style="ellipse;whiteSpace=wrap;html=1;aspect=fixed;fillColor=#a20025;fontColor=#ffffff;strokeColor=#6F0000;" vertex="1" parent="1">
          <mxGeometry x="310" y="450" width="20" height="20" as="geometry" />
        </mxCell>
        <mxCell id="CuuMhLuTAZU-JGKCB6XP-5" value="" style="ellipse;whiteSpace=wrap;html=1;aspect=fixed;fillColor=#a20025;fontColor=#ffffff;strokeColor=#6F0000;" vertex="1" parent="1">
          <mxGeometry x="340" y="450" width="20" height="20" as="geometry" />
        </mxCell>
        <mxCell id="CuuMhLuTAZU-JGKCB6XP-6" value="" style="ellipse;whiteSpace=wrap;html=1;aspect=fixed;fillColor=#a20025;fontColor=#ffffff;strokeColor=#6F0000;" vertex="1" parent="1">
          <mxGeometry x="370" y="450" width="20" height="20" as="geometry" />
        </mxCell>
        <mxCell id="CuuMhLuTAZU-JGKCB6XP-7" value="" style="ellipse;whiteSpace=wrap;html=1;aspect=fixed;" vertex="1" parent="1">
          <mxGeometry x="400" y="450" width="20" height="20" as="geometry" />
        </mxCell>
        <mxCell id="CuuMhLuTAZU-JGKCB6XP-8" value="" style="ellipse;whiteSpace=wrap;html=1;aspect=fixed;" vertex="1" parent="1">
          <mxGeometry x="430" y="450" width="20" height="20" as="geometry" />
        </mxCell>
        <mxCell id="CuuMhLuTAZU-JGKCB6XP-9" value="" style="ellipse;whiteSpace=wrap;html=1;aspect=fixed;" vertex="1" parent="1">
          <mxGeometry x="460" y="450" width="20" height="20" as="geometry" />
        </mxCell>
        <mxCell id="CuuMhLuTAZU-JGKCB6XP-103" style="edgeStyle=orthogonalEdgeStyle;rounded=0;orthogonalLoop=1;jettySize=auto;html=1;entryX=0.5;entryY=1;entryDx=0;entryDy=0;fillColor=#1ba1e2;strokeColor=#006EAF;" edge="1" parent="1" source="CuuMhLuTAZU-JGKCB6XP-10" target="CuuMhLuTAZU-JGKCB6XP-90">
          <mxGeometry relative="1" as="geometry" />
        </mxCell>
        <mxCell id="CuuMhLuTAZU-JGKCB6XP-10" value="" style="ellipse;whiteSpace=wrap;html=1;aspect=fixed;" vertex="1" parent="1">
          <mxGeometry x="250" y="420" width="20" height="20" as="geometry" />
        </mxCell>
        <mxCell id="CuuMhLuTAZU-JGKCB6XP-104" style="edgeStyle=orthogonalEdgeStyle;rounded=0;orthogonalLoop=1;jettySize=auto;html=1;entryX=0.5;entryY=1;entryDx=0;entryDy=0;fillColor=#1ba1e2;strokeColor=#006EAF;" edge="1" parent="1" source="CuuMhLuTAZU-JGKCB6XP-11" target="CuuMhLuTAZU-JGKCB6XP-91">
          <mxGeometry relative="1" as="geometry" />
        </mxCell>
        <mxCell id="CuuMhLuTAZU-JGKCB6XP-11" value="" style="ellipse;whiteSpace=wrap;html=1;aspect=fixed;" vertex="1" parent="1">
          <mxGeometry x="280" y="420" width="20" height="20" as="geometry" />
        </mxCell>
        <mxCell id="CuuMhLuTAZU-JGKCB6XP-105" style="edgeStyle=orthogonalEdgeStyle;rounded=0;orthogonalLoop=1;jettySize=auto;html=1;entryX=0.5;entryY=1;entryDx=0;entryDy=0;fillColor=#1ba1e2;strokeColor=#006EAF;" edge="1" parent="1" source="CuuMhLuTAZU-JGKCB6XP-12" target="CuuMhLuTAZU-JGKCB6XP-92">
          <mxGeometry relative="1" as="geometry" />
        </mxCell>
        <mxCell id="CuuMhLuTAZU-JGKCB6XP-12" value="" style="ellipse;whiteSpace=wrap;html=1;aspect=fixed;" vertex="1" parent="1">
          <mxGeometry x="310" y="420" width="20" height="20" as="geometry" />
        </mxCell>
        <mxCell id="CuuMhLuTAZU-JGKCB6XP-107" style="edgeStyle=orthogonalEdgeStyle;rounded=0;orthogonalLoop=1;jettySize=auto;html=1;entryX=0.5;entryY=1;entryDx=0;entryDy=0;fillColor=#1ba1e2;strokeColor=#006EAF;" edge="1" parent="1" source="CuuMhLuTAZU-JGKCB6XP-13" target="CuuMhLuTAZU-JGKCB6XP-93">
          <mxGeometry relative="1" as="geometry" />
        </mxCell>
        <mxCell id="CuuMhLuTAZU-JGKCB6XP-13" value="" style="ellipse;whiteSpace=wrap;html=1;aspect=fixed;fillColor=#a20025;fontColor=#ffffff;strokeColor=#6F0000;" vertex="1" parent="1">
          <mxGeometry x="340" y="420" width="20" height="20" as="geometry" />
        </mxCell>
        <mxCell id="CuuMhLuTAZU-JGKCB6XP-110" style="edgeStyle=orthogonalEdgeStyle;rounded=0;orthogonalLoop=1;jettySize=auto;html=1;entryX=0.5;entryY=1;entryDx=0;entryDy=0;fillColor=#1ba1e2;strokeColor=#006EAF;" edge="1" parent="1" source="CuuMhLuTAZU-JGKCB6XP-14" target="CuuMhLuTAZU-JGKCB6XP-94">
          <mxGeometry relative="1" as="geometry" />
        </mxCell>
        <mxCell id="CuuMhLuTAZU-JGKCB6XP-14" value="" style="ellipse;whiteSpace=wrap;html=1;aspect=fixed;" vertex="1" parent="1">
          <mxGeometry x="370" y="420" width="20" height="20" as="geometry" />
        </mxCell>
        <mxCell id="CuuMhLuTAZU-JGKCB6XP-111" style="edgeStyle=orthogonalEdgeStyle;rounded=0;orthogonalLoop=1;jettySize=auto;html=1;entryX=0.5;entryY=1;entryDx=0;entryDy=0;fillColor=#1ba1e2;strokeColor=#006EAF;" edge="1" parent="1" source="CuuMhLuTAZU-JGKCB6XP-15" target="CuuMhLuTAZU-JGKCB6XP-95">
          <mxGeometry relative="1" as="geometry" />
        </mxCell>
        <mxCell id="CuuMhLuTAZU-JGKCB6XP-15" value="" style="ellipse;whiteSpace=wrap;html=1;aspect=fixed;" vertex="1" parent="1">
          <mxGeometry x="400" y="420" width="20" height="20" as="geometry" />
        </mxCell>
        <mxCell id="CuuMhLuTAZU-JGKCB6XP-112" style="edgeStyle=orthogonalEdgeStyle;rounded=0;orthogonalLoop=1;jettySize=auto;html=1;entryX=0.5;entryY=1;entryDx=0;entryDy=0;fillColor=#1ba1e2;strokeColor=#006EAF;" edge="1" parent="1" source="CuuMhLuTAZU-JGKCB6XP-16" target="CuuMhLuTAZU-JGKCB6XP-96">
          <mxGeometry relative="1" as="geometry" />
        </mxCell>
        <mxCell id="CuuMhLuTAZU-JGKCB6XP-16" value="" style="ellipse;whiteSpace=wrap;html=1;aspect=fixed;" vertex="1" parent="1">
          <mxGeometry x="430" y="420" width="20" height="20" as="geometry" />
        </mxCell>
        <mxCell id="CuuMhLuTAZU-JGKCB6XP-118" style="edgeStyle=orthogonalEdgeStyle;rounded=0;orthogonalLoop=1;jettySize=auto;html=1;entryX=0.5;entryY=1;entryDx=0;entryDy=0;fillColor=#1ba1e2;strokeColor=#006EAF;" edge="1" parent="1" source="CuuMhLuTAZU-JGKCB6XP-17" target="CuuMhLuTAZU-JGKCB6XP-97">
          <mxGeometry relative="1" as="geometry" />
        </mxCell>
        <mxCell id="CuuMhLuTAZU-JGKCB6XP-17" value="" style="ellipse;whiteSpace=wrap;html=1;aspect=fixed;" vertex="1" parent="1">
          <mxGeometry x="460" y="420" width="20" height="20" as="geometry" />
        </mxCell>
        <mxCell id="CuuMhLuTAZU-JGKCB6XP-18" value="" style="ellipse;whiteSpace=wrap;html=1;aspect=fixed;" vertex="1" parent="1">
          <mxGeometry x="250" y="390" width="20" height="20" as="geometry" />
        </mxCell>
        <mxCell id="CuuMhLuTAZU-JGKCB6XP-19" value="" style="ellipse;whiteSpace=wrap;html=1;aspect=fixed;" vertex="1" parent="1">
          <mxGeometry x="280" y="390" width="20" height="20" as="geometry" />
        </mxCell>
        <mxCell id="CuuMhLuTAZU-JGKCB6XP-20" value="" style="ellipse;whiteSpace=wrap;html=1;aspect=fixed;" vertex="1" parent="1">
          <mxGeometry x="310" y="390" width="20" height="20" as="geometry" />
        </mxCell>
        <mxCell id="CuuMhLuTAZU-JGKCB6XP-21" value="" style="ellipse;whiteSpace=wrap;html=1;aspect=fixed;" vertex="1" parent="1">
          <mxGeometry x="340" y="390" width="20" height="20" as="geometry" />
        </mxCell>
        <mxCell id="CuuMhLuTAZU-JGKCB6XP-22" value="" style="ellipse;whiteSpace=wrap;html=1;aspect=fixed;" vertex="1" parent="1">
          <mxGeometry x="370" y="390" width="20" height="20" as="geometry" />
        </mxCell>
        <mxCell id="CuuMhLuTAZU-JGKCB6XP-23" value="" style="ellipse;whiteSpace=wrap;html=1;aspect=fixed;strokeColor=default;" vertex="1" parent="1">
          <mxGeometry x="400" y="390" width="20" height="20" as="geometry" />
        </mxCell>
        <mxCell id="CuuMhLuTAZU-JGKCB6XP-24" value="" style="ellipse;whiteSpace=wrap;html=1;aspect=fixed;" vertex="1" parent="1">
          <mxGeometry x="430" y="390" width="20" height="20" as="geometry" />
        </mxCell>
        <mxCell id="CuuMhLuTAZU-JGKCB6XP-25" value="" style="ellipse;whiteSpace=wrap;html=1;aspect=fixed;" vertex="1" parent="1">
          <mxGeometry x="460" y="390" width="20" height="20" as="geometry" />
        </mxCell>
        <mxCell id="CuuMhLuTAZU-JGKCB6XP-26" value="" style="ellipse;whiteSpace=wrap;html=1;aspect=fixed;" vertex="1" parent="1">
          <mxGeometry x="250" y="360" width="20" height="20" as="geometry" />
        </mxCell>
        <mxCell id="CuuMhLuTAZU-JGKCB6XP-27" value="" style="ellipse;whiteSpace=wrap;html=1;aspect=fixed;" vertex="1" parent="1">
          <mxGeometry x="280" y="360" width="20" height="20" as="geometry" />
        </mxCell>
        <mxCell id="CuuMhLuTAZU-JGKCB6XP-28" value="" style="ellipse;whiteSpace=wrap;html=1;aspect=fixed;" vertex="1" parent="1">
          <mxGeometry x="310" y="360" width="20" height="20" as="geometry" />
        </mxCell>
        <mxCell id="CuuMhLuTAZU-JGKCB6XP-29" value="" style="ellipse;whiteSpace=wrap;html=1;aspect=fixed;" vertex="1" parent="1">
          <mxGeometry x="340" y="360" width="20" height="20" as="geometry" />
        </mxCell>
        <mxCell id="CuuMhLuTAZU-JGKCB6XP-30" value="" style="ellipse;whiteSpace=wrap;html=1;aspect=fixed;" vertex="1" parent="1">
          <mxGeometry x="370" y="360" width="20" height="20" as="geometry" />
        </mxCell>
        <mxCell id="CuuMhLuTAZU-JGKCB6XP-31" value="" style="ellipse;whiteSpace=wrap;html=1;aspect=fixed;" vertex="1" parent="1">
          <mxGeometry x="400" y="360" width="20" height="20" as="geometry" />
        </mxCell>
        <mxCell id="CuuMhLuTAZU-JGKCB6XP-32" value="" style="ellipse;whiteSpace=wrap;html=1;aspect=fixed;" vertex="1" parent="1">
          <mxGeometry x="430" y="360" width="20" height="20" as="geometry" />
        </mxCell>
        <mxCell id="CuuMhLuTAZU-JGKCB6XP-33" value="" style="ellipse;whiteSpace=wrap;html=1;aspect=fixed;" vertex="1" parent="1">
          <mxGeometry x="460" y="360" width="20" height="20" as="geometry" />
        </mxCell>
        <mxCell id="CuuMhLuTAZU-JGKCB6XP-66" value="" style="ellipse;whiteSpace=wrap;html=1;aspect=fixed;" vertex="1" parent="1">
          <mxGeometry x="250" y="330" width="20" height="20" as="geometry" />
        </mxCell>
        <mxCell id="CuuMhLuTAZU-JGKCB6XP-67" value="" style="ellipse;whiteSpace=wrap;html=1;aspect=fixed;" vertex="1" parent="1">
          <mxGeometry x="280" y="330" width="20" height="20" as="geometry" />
        </mxCell>
        <mxCell id="CuuMhLuTAZU-JGKCB6XP-68" value="" style="ellipse;whiteSpace=wrap;html=1;aspect=fixed;" vertex="1" parent="1">
          <mxGeometry x="310" y="330" width="20" height="20" as="geometry" />
        </mxCell>
        <mxCell id="CuuMhLuTAZU-JGKCB6XP-69" value="" style="ellipse;whiteSpace=wrap;html=1;aspect=fixed;" vertex="1" parent="1">
          <mxGeometry x="340" y="330" width="20" height="20" as="geometry" />
        </mxCell>
        <mxCell id="CuuMhLuTAZU-JGKCB6XP-70" value="" style="ellipse;whiteSpace=wrap;html=1;aspect=fixed;" vertex="1" parent="1">
          <mxGeometry x="370" y="330" width="20" height="20" as="geometry" />
        </mxCell>
        <mxCell id="CuuMhLuTAZU-JGKCB6XP-71" value="" style="ellipse;whiteSpace=wrap;html=1;aspect=fixed;" vertex="1" parent="1">
          <mxGeometry x="400" y="330" width="20" height="20" as="geometry" />
        </mxCell>
        <mxCell id="CuuMhLuTAZU-JGKCB6XP-72" value="" style="ellipse;whiteSpace=wrap;html=1;aspect=fixed;" vertex="1" parent="1">
          <mxGeometry x="430" y="330" width="20" height="20" as="geometry" />
        </mxCell>
        <mxCell id="CuuMhLuTAZU-JGKCB6XP-73" value="" style="ellipse;whiteSpace=wrap;html=1;aspect=fixed;" vertex="1" parent="1">
          <mxGeometry x="460" y="330" width="20" height="20" as="geometry" />
        </mxCell>
        <mxCell id="CuuMhLuTAZU-JGKCB6XP-74" value="" style="ellipse;whiteSpace=wrap;html=1;aspect=fixed;" vertex="1" parent="1">
          <mxGeometry x="250" y="300" width="20" height="20" as="geometry" />
        </mxCell>
        <mxCell id="CuuMhLuTAZU-JGKCB6XP-75" value="" style="ellipse;whiteSpace=wrap;html=1;aspect=fixed;" vertex="1" parent="1">
          <mxGeometry x="280" y="300" width="20" height="20" as="geometry" />
        </mxCell>
        <mxCell id="CuuMhLuTAZU-JGKCB6XP-76" value="" style="ellipse;whiteSpace=wrap;html=1;aspect=fixed;" vertex="1" parent="1">
          <mxGeometry x="310" y="300" width="20" height="20" as="geometry" />
        </mxCell>
        <mxCell id="CuuMhLuTAZU-JGKCB6XP-77" value="" style="ellipse;whiteSpace=wrap;html=1;aspect=fixed;" vertex="1" parent="1">
          <mxGeometry x="340" y="300" width="20" height="20" as="geometry" />
        </mxCell>
        <mxCell id="CuuMhLuTAZU-JGKCB6XP-78" value="" style="ellipse;whiteSpace=wrap;html=1;aspect=fixed;" vertex="1" parent="1">
          <mxGeometry x="370" y="300" width="20" height="20" as="geometry" />
        </mxCell>
        <mxCell id="CuuMhLuTAZU-JGKCB6XP-79" value="" style="ellipse;whiteSpace=wrap;html=1;aspect=fixed;" vertex="1" parent="1">
          <mxGeometry x="400" y="300" width="20" height="20" as="geometry" />
        </mxCell>
        <mxCell id="CuuMhLuTAZU-JGKCB6XP-80" value="" style="ellipse;whiteSpace=wrap;html=1;aspect=fixed;" vertex="1" parent="1">
          <mxGeometry x="430" y="300" width="20" height="20" as="geometry" />
        </mxCell>
        <mxCell id="CuuMhLuTAZU-JGKCB6XP-81" value="" style="ellipse;whiteSpace=wrap;html=1;aspect=fixed;" vertex="1" parent="1">
          <mxGeometry x="460" y="300" width="20" height="20" as="geometry" />
        </mxCell>
        <mxCell id="CuuMhLuTAZU-JGKCB6XP-82" value="" style="ellipse;whiteSpace=wrap;html=1;aspect=fixed;" vertex="1" parent="1">
          <mxGeometry x="250" y="270" width="20" height="20" as="geometry" />
        </mxCell>
        <mxCell id="CuuMhLuTAZU-JGKCB6XP-83" value="" style="ellipse;whiteSpace=wrap;html=1;aspect=fixed;" vertex="1" parent="1">
          <mxGeometry x="280" y="270" width="20" height="20" as="geometry" />
        </mxCell>
        <mxCell id="CuuMhLuTAZU-JGKCB6XP-84" value="" style="ellipse;whiteSpace=wrap;html=1;aspect=fixed;" vertex="1" parent="1">
          <mxGeometry x="310" y="270" width="20" height="20" as="geometry" />
        </mxCell>
        <mxCell id="CuuMhLuTAZU-JGKCB6XP-85" value="" style="ellipse;whiteSpace=wrap;html=1;aspect=fixed;" vertex="1" parent="1">
          <mxGeometry x="340" y="270" width="20" height="20" as="geometry" />
        </mxCell>
        <mxCell id="CuuMhLuTAZU-JGKCB6XP-86" value="" style="ellipse;whiteSpace=wrap;html=1;aspect=fixed;" vertex="1" parent="1">
          <mxGeometry x="370" y="270" width="20" height="20" as="geometry" />
        </mxCell>
        <mxCell id="CuuMhLuTAZU-JGKCB6XP-87" value="" style="ellipse;whiteSpace=wrap;html=1;aspect=fixed;" vertex="1" parent="1">
          <mxGeometry x="400" y="270" width="20" height="20" as="geometry" />
        </mxCell>
        <mxCell id="CuuMhLuTAZU-JGKCB6XP-88" value="" style="ellipse;whiteSpace=wrap;html=1;aspect=fixed;" vertex="1" parent="1">
          <mxGeometry x="430" y="270" width="20" height="20" as="geometry" />
        </mxCell>
        <mxCell id="CuuMhLuTAZU-JGKCB6XP-89" value="" style="ellipse;whiteSpace=wrap;html=1;aspect=fixed;" vertex="1" parent="1">
          <mxGeometry x="460" y="270" width="20" height="20" as="geometry" />
        </mxCell>
        <mxCell id="CuuMhLuTAZU-JGKCB6XP-90" value="" style="ellipse;whiteSpace=wrap;html=1;aspect=fixed;" vertex="1" parent="1">
          <mxGeometry x="250" y="240" width="20" height="20" as="geometry" />
        </mxCell>
        <mxCell id="CuuMhLuTAZU-JGKCB6XP-91" value="" style="ellipse;whiteSpace=wrap;html=1;aspect=fixed;" vertex="1" parent="1">
          <mxGeometry x="280" y="240" width="20" height="20" as="geometry" />
        </mxCell>
        <mxCell id="CuuMhLuTAZU-JGKCB6XP-92" value="" style="ellipse;whiteSpace=wrap;html=1;aspect=fixed;" vertex="1" parent="1">
          <mxGeometry x="310" y="240" width="20" height="20" as="geometry" />
        </mxCell>
        <mxCell id="CuuMhLuTAZU-JGKCB6XP-93" value="" style="ellipse;whiteSpace=wrap;html=1;aspect=fixed;" vertex="1" parent="1">
          <mxGeometry x="340" y="240" width="20" height="20" as="geometry" />
        </mxCell>
        <mxCell id="CuuMhLuTAZU-JGKCB6XP-94" value="" style="ellipse;whiteSpace=wrap;html=1;aspect=fixed;" vertex="1" parent="1">
          <mxGeometry x="370" y="240" width="20" height="20" as="geometry" />
        </mxCell>
        <mxCell id="CuuMhLuTAZU-JGKCB6XP-95" value="" style="ellipse;whiteSpace=wrap;html=1;aspect=fixed;" vertex="1" parent="1">
          <mxGeometry x="400" y="240" width="20" height="20" as="geometry" />
        </mxCell>
        <mxCell id="CuuMhLuTAZU-JGKCB6XP-96" value="" style="ellipse;whiteSpace=wrap;html=1;aspect=fixed;" vertex="1" parent="1">
          <mxGeometry x="430" y="240" width="20" height="20" as="geometry" />
        </mxCell>
        <mxCell id="CuuMhLuTAZU-JGKCB6XP-97" value="" style="ellipse;whiteSpace=wrap;html=1;aspect=fixed;" vertex="1" parent="1">
          <mxGeometry x="460" y="240" width="20" height="20" as="geometry" />
        </mxCell>
      </root>
    </mxGraphModel>
  </diagram>
</mxfile>
